<svg width="270" height="270" viewBox="0 0 270 270" fill="none" xmlns="http://www.w3.org/2000/svg">
<rect width="270" height="270" rx="20" fill="#FFA600"/>
<path d="M10 27.625C10 23.481 11.6462 19.5067 14.5765 16.5765C17.5067 13.6462 21.481 12 25.625 12H244.375C248.519 12 252.493 13.6462 255.424 16.5765C258.354 19.5067 260 23.481 260 27.625V246.375C260 250.519 258.354 254.493 255.424 257.424C252.493 260.354 248.519 262 244.375 262H25.625C21.481 262 17.5067 260.354 14.5765 257.424C11.6462 254.493 10 250.519 10 246.375V27.625ZM72.5 27.625V121.375H197.5V27.625H72.5ZM197.5 152.625H72.5V246.375H197.5V152.625ZM25.625 27.625V58.875H56.875V27.625H25.625ZM56.875 74.5H25.625V105.75H56.875V74.5ZM25.625 121.375V152.625H56.875V121.375H25.625ZM56.875 168.25H25.625V199.5H56.875V168.25ZM25.625 215.125V246.375H56.875V215.125H25.625ZM244.375 27.625H213.125V58.875H244.375V27.625ZM213.125 74.5V105.75H244.375V74.5H213.125ZM244.375 121.375H213.125V152.625H244.375V121.375ZM213.125 168.25V199.5H244.375V168.25H213.125ZM244.375 215.125H213.125V246.375H244.375V215.125Z" fill="#0A0A0A"/>
</svg>
