<svg width="270" height="270" viewBox="0 0 270 270" fill="none" xmlns="http://www.w3.org/2000/svg">
<rect width="270" height="270" rx="20" fill="#00BBFF"/>
<path d="M52.3438 216.781C52.3438 214.8 53.1306 212.901 54.5313 211.5C55.932 210.099 57.8317 209.312 59.8125 209.312H209.188C211.168 209.312 213.068 210.099 214.469 211.5C215.869 212.901 216.656 214.8 216.656 216.781C216.656 218.762 215.869 220.662 214.469 222.062C213.068 223.463 211.168 224.25 209.188 224.25H59.8125C57.8317 224.25 55.932 223.463 54.5313 222.062C53.1306 220.662 52.3438 218.762 52.3438 216.781ZM223.991 59.9375L224.349 59.9524C227.138 60.1568 229.863 60.8813 232.385 62.0885C234.197 62.934 235.753 64.2428 236.897 65.8826C237.897 67.3764 239.062 70.0203 239.062 74.875V164.366L239.048 164.724C238.843 167.513 238.119 170.238 236.911 172.76C236.066 174.572 234.757 176.128 233.117 177.272C231.624 178.272 228.98 179.438 224.125 179.438H45.0094L44.6509 179.423C41.8623 179.218 39.1366 178.494 36.6146 177.286C34.803 176.441 33.2469 175.132 32.1034 173.492C31.1026 171.999 29.9375 169.355 29.9375 164.5V75.0094L29.9524 74.6509C30.1568 71.8623 30.8813 69.1366 32.0885 66.6146C32.934 64.803 34.2428 63.2469 35.8826 62.1034C37.3764 61.1026 40.0203 59.9375 44.875 59.9375H223.991ZM224.125 45H44.875C15 45 15 74.875 15 74.875V164.5C15 194.375 44.875 194.375 44.875 194.375H224.125C254 194.375 254 164.5 254 164.5V74.875C254 45 224.125 45 224.125 45Z" fill="#0A0A0A"/>
</svg>
